<?xml version="1.0" standalone="no"?>
<!DOCTYPE svg PUBLIC "-//W3C//DTD SVG 20010904//EN"
 "http://www.w3.org/TR/2001/REC-SVG-20010904/DTD/svg10.dtd">
<svg version="1.0" xmlns="http://www.w3.org/2000/svg"
 width="100.000000pt" height="100.000000pt" viewBox="0 0 100.000000 100.000000"
 preserveAspectRatio="xMidYMid meet">
<metadata>
Created by potrace 1.11, written by Peter Selinger 2001-2013
</metadata>
<g transform="translate(0.000000,100.000000) scale(0.100000,-0.100000)"
fill="#000000" stroke="none">
<path d="M203 940 c-52 -31 -67 -62 -60 -126 4 -37 1 -66 -9 -89 -28 -67 -12
-157 35 -204 12 -12 31 -46 42 -76 21 -56 54 -91 96 -101 12 -4 23 -10 23 -14
0 -8 -50 -67 -122 -145 -53 -55 -56 -66 -31 -91 30 -29 80 -44 150 -44 80 0
128 12 174 43 31 21 34 27 34 76 l0 53 61 22 c140 51 192 130 172 261 -4 27
-5 51 -3 53 2 2 24 4 50 4 28 0 48 5 51 12 3 7 -6 35 -20 61 -15 26 -26 53
-26 60 0 26 -52 65 -86 65 -47 0 -75 -15 -108 -61 -21 -27 -32 -35 -37 -27
-11 17 -29 131 -32 203 -2 57 -4 60 -30 63 -53 6 -104 -49 -109 -118 -1 -17
-6 -34 -11 -37 -5 -3 -17 -23 -27 -45 l-17 -39 -31 47 c-36 54 -71 140 -74
184 -3 35 -12 37 -55 10z m33 -92 c28 -95 98 -191 188 -257 52 -38 116 -75
120 -69 2 2 29 39 62 83 73 100 90 115 125 115 31 0 59 -31 59 -67 0 -12 5
-25 10 -28 22 -14 8 -25 -26 -22 -48 6 -66 -13 -53 -56 13 -43 13 -126 0 -159
-18 -48 -127 -116 -188 -117 -30 -1 -36 -15 -38 -80 -1 -52 -3 -57 -34 -75
-60 -35 -251 -31 -251 5 0 9 68 86 157 176 54 55 54 66 -2 72 -65 7 -125 64
-125 120 0 13 -11 32 -26 44 -55 42 -68 122 -33 193 16 33 18 47 10 63 -14 25
-14 67 0 92 15 30 31 19 45 -33z m283 -5 c1 -49 12 -111 38 -218 3 -12 -3 -27
-15 -38 -18 -16 -21 -15 -75 24 -48 33 -57 45 -57 70 0 33 16 70 35 81 7 4 12
22 13 39 1 43 20 87 40 92 10 3 17 5 18 6 0 0 2 -25 3 -56z"/>
</g>
</svg>
